# xmcd CD database file
# 
# Track frame offsets:
# 	150
# 	10972
# 	20024
# 	29226
# 	37318
# 	47757
# 	57079
# 	68261
# 	78513
# 	87437
# 	99286
# 	109170
# 
# Disc length: 1572 seconds
# 
# Submitted via: Nero 5.5.3.5
# 
# Revision: 0
# Processed by: cddbd v1.4PL0 Copyright (c) Steve Scherf et al.
#
DISCID=9a06220c
DTITLE=Johnny Cash - Now, There Was A Song!
DYEAR=1900
DGENRE=
TTITLE0=Seasons of my heart
TTITLE1=I feel better all over
TTITLE2=I couldn't keep from crying
TTITLE3=Time changes everything
TTITLE4=My shoes keep walking back to you
TTITLE5=I'd just be fool enough (to fall)
TTITLE6=Transfusion blues
TTITLE7=Why do you punish me
TTITLE8=I will miss you when you go
TTITLE9=I'm so lonesome I could cry
TTITLE10=Just one more
TTITLE11=Honky-tonk girl
EXTD=
EXTT0=
EXTT1=
EXTT2=
EXTT3=
EXTT4=
EXTT5=
EXTT6=
EXTT7=
EXTT8=
EXTT9=
EXTT10=
EXTT11=
PLAYORDER=
